<svg width="23" height="24" viewBox="0 0 23 24" fill="none" xmlns="http://www.w3.org/2000/svg">
<path d="M22.3239 4.11858C23.2223 3.19573 23.2223 1.69702 22.3239 0.77417C21.4255 -0.148682 19.9664 -0.148682 19.068 0.77417L11.4995 8.55565L3.92391 0.781553C3.02547 -0.141299 1.56641 -0.141299 0.667969 0.781553C-0.230469 1.7044 -0.230469 3.20311 0.667969 4.12597L8.24359 11.9001L0.675156 19.6816C-0.223281 20.6044 -0.223281 22.1031 0.675156 23.026C1.57359 23.9488 3.03266 23.9488 3.93109 23.026L11.4995 15.2445L19.0752 23.0186C19.9736 23.9414 21.4327 23.9414 22.3311 23.0186C23.2295 22.0957 23.2295 20.597 22.3311 19.6742L14.7555 11.9001L22.3239 4.11858Z" fill="white"/>
</svg>
