<svg width="24" height="22" viewBox="0 0 24 22" fill="none" xmlns="http://www.w3.org/2000/svg">
<path d="M0 2.19613C0 1.23804 0.766071 0.463989 1.71429 0.463989H22.2857C23.2339 0.463989 24 1.23804 24 2.19613C24 3.15422 23.2339 3.92827 22.2857 3.92827H1.71429C0.766071 3.92827 0 3.15422 0 2.19613ZM0 10.8568C0 9.89875 0.766071 9.1247 1.71429 9.1247H22.2857C23.2339 9.1247 24 9.89875 24 10.8568C24 11.8149 23.2339 12.589 22.2857 12.589H1.71429C0.766071 12.589 0 11.8149 0 10.8568ZM24 19.5176C24 20.4757 23.2339 21.2497 22.2857 21.2497H1.71429C0.766071 21.2497 0 20.4757 0 19.5176C0 18.5595 0.766071 17.7854 1.71429 17.7854H22.2857C23.2339 17.7854 24 18.5595 24 19.5176Z" fill="white"/>
</svg>
